<mxGraphModel dx="1500" dy="800" grid="1" gridSize="10" guides="1" tooltips="1" connect="1" arrows="1" fold="1" page="1" pageScale="1" pageWidth="850" pageHeight="1100" math="0" shadow="0">
  <root>
    <mxCell id="0" />
    <mxCell id="1" parent="0" />
    
    <!-- 页面标题 -->
    <mxCell id="2" value="ARIMA模型训练" style="text;html=1;strokeColor=none;fillColor=none;align=center;verticalAlign=middle;whiteSpace=wrap;rounded=0;fontSize=20;fontStyle=1" vertex="1" parent="1">
      <mxGeometry x="360" y="20" width="180" height="30" as="geometry" />
    </mxCell>

    <!-- 左侧栏 - 数据信息 -->
    <mxCell id="3" value="左侧栏 - 数据和特征" style="rounded=0;whiteSpace=wrap;html=1;fillColor=#f5f5f5;strokeColor=#666666;fontColor=#333333;align=center;verticalAlign=top;fontSize=14;fontStyle=1" vertex="1" parent="1">
      <mxGeometry x="20" y="70" width="200" height="600" as="geometry" />
    </mxCell>
    <mxCell id="4" value="数据信息&#xa;- 数据形状&#xa;- 时间范围" style="rounded=1;whiteSpace=wrap;html=1;fillColor=#dae8fc;strokeColor=#6c8ebf;align=left;spacingLeft=10;" vertex="1" parent="1">
      <mxGeometry x="30" y="110" width="180" height="60" as="geometry" />
    </mxCell>
    <mxCell id="5" value="数据划分&#xa;- 训练集比例滑块&#xa;- 预测步数" style="rounded=1;whiteSpace=wrap;html=1;fillColor=#dae8fc;strokeColor=#6c8ebf;align=left;spacingLeft=10;" vertex="1" parent="1">
      <mxGeometry x="30" y="180" width="180" height="60" as="geometry" />
    </mxCell>
    <mxCell id="6" value="模型信息&#xa;- 训练状态&#xa;- 模型保存选项&#xa;- 模型评估简报" style="rounded=1;whiteSpace=wrap;html=1;fillColor=#dae8fc;strokeColor=#6c8ebf;align=left;spacingLeft=10;" vertex="1" parent="1">
      <mxGeometry x="30" y="250" width="180" height="80" as="geometry" />
    </mxCell>

    <!-- 中间栏 - ARIMA模型参数配置 -->
    <mxCell id="7" value="ARIMA模型参数配置" style="rounded=0;whiteSpace=wrap;html=1;fillColor=#f5f5f5;strokeColor=#666666;fontColor=#333333;align=center;verticalAlign=top;fontSize=14;fontStyle=1" vertex="1" parent="1">
      <mxGeometry x="240" y="70" width="600" height="600" as="geometry" />
    </mxCell>

    <!-- 数据预处理区域 -->
    <mxCell id="8" value="1. 数据预处理" style="text;html=1;strokeColor=none;fillColor=none;align=left;verticalAlign=middle;whiteSpace=wrap;rounded=0;fontSize=14;fontStyle=1" vertex="1" parent="1">
      <mxGeometry x="250" y="110" width="120" height="20" as="geometry" />
    </mxCell>
    <mxCell id="9" value="平稳性检验" style="rounded=1;whiteSpace=wrap;html=1;fillColor=#fff2cc;strokeColor=#d6b656;" vertex="1" parent="1">
      <mxGeometry x="250" y="140" width="120" height="30" as="geometry" />
    </mxCell>
    <mxCell id="10" value="平稳性检验结果展示" style="rounded=1;whiteSpace=wrap;html=1;fillColor=#fff2cc;strokeColor=#d6b656;" vertex="1" parent="1">
      <mxGeometry x="380" y="140" width="450" height="30" as="geometry" />
    </mxCell>
    <mxCell id="11" value="差分设置" style="rounded=1;whiteSpace=wrap;html=1;fillColor=#fff2cc;strokeColor=#d6b656;" vertex="1" parent="1">
      <mxGeometry x="250" y="180" width="120" height="30" as="geometry" />
    </mxCell>
    <mxCell id="12" value="普通差分" style="rounded=1;whiteSpace=wrap;html=1;fillColor=#fff2cc;strokeColor=#d6b656;" vertex="1" parent="1">
      <mxGeometry x="380" y="180" width="100" height="30" as="geometry" />
    </mxCell>
    <mxCell id="13" value="对数差分" style="rounded=1;whiteSpace=wrap;html=1;fillColor=#fff2cc;strokeColor=#d6b656;" vertex="1" parent="1">
      <mxGeometry x="490" y="180" width="100" height="30" as="geometry" />
    </mxCell>
    <mxCell id="14" value="差分阶数" style="rounded=1;whiteSpace=wrap;html=1;fillColor=#fff2cc;strokeColor=#d6b656;" vertex="1" parent="1">
      <mxGeometry x="600" y="180" width="100" height="30" as="geometry" />
    </mxCell>
    <mxCell id="15" value="执行差分" style="rounded=1;whiteSpace=wrap;html=1;fillColor=#fff2cc;strokeColor=#d6b656;" vertex="1" parent="1">
      <mxGeometry x="710" y="180" width="120" height="30" as="geometry" />
    </mxCell>
    <mxCell id="16" value="差分结果图表" style="rounded=1;whiteSpace=wrap;html=1;fillColor=#fff2cc;strokeColor=#d6b656;" vertex="1" parent="1">
      <mxGeometry x="380" y="220" width="450" height="60" as="geometry" />
    </mxCell>
    <mxCell id="17" value="ACF/PACF分析" style="rounded=1;whiteSpace=wrap;html=1;fillColor=#fff2cc;strokeColor=#d6b656;" vertex="1" parent="1">
      <mxGeometry x="250" y="220" width="120" height="30" as="geometry" />
    </mxCell>
    <mxCell id="18" value="显示ACF/PACF" style="rounded=1;whiteSpace=wrap;html=1;fillColor=#fff2cc;strokeColor=#d6b656;" vertex="1" parent="1">
      <mxGeometry x="250" y="260" width="120" height="30" as="geometry" />
    </mxCell>

    <!-- 模型参数配置区域 -->
    <mxCell id="19" value="2. 模型参数配置" style="text;html=1;strokeColor=none;fillColor=none;align=left;verticalAlign=middle;whiteSpace=wrap;rounded=0;fontSize=14;fontStyle=1" vertex="1" parent="1">
      <mxGeometry x="250" y="300" width="160" height="20" as="geometry" />
    </mxCell>
    <mxCell id="20" value="手动参数设置" style="rounded=1;whiteSpace=wrap;html=1;fillColor=#d5e8d4;strokeColor=#82b366;" vertex="1" parent="1">
      <mxGeometry x="250" y="330" width="120" height="30" as="geometry" />
    </mxCell>
    <mxCell id="21" value="p (AR阶数)" style="rounded=1;whiteSpace=wrap;html=1;fillColor=#d5e8d4;strokeColor=#82b366;" vertex="1" parent="1">
      <mxGeometry x="380" y="330" width="100" height="30" as="geometry" />
    </mxCell>
    <mxCell id="22" value="d (差分阶数)" style="rounded=1;whiteSpace=wrap;html=1;fillColor=#d5e8d4;strokeColor=#82b366;" vertex="1" parent="1">
      <mxGeometry x="490" y="330" width="100" height="30" as="geometry" />
    </mxCell>
    <mxCell id="23" value="q (MA阶数)" style="rounded=1;whiteSpace=wrap;html=1;fillColor=#d5e8d4;strokeColor=#82b366;" vertex="1" parent="1">
      <mxGeometry x="600" y="330" width="100" height="30" as="geometry" />
    </mxCell>
    <mxCell id="24" value="包含季节性成分" style="rounded=1;whiteSpace=wrap;html=1;fillColor=#d5e8d4;strokeColor=#82b366;" vertex="1" parent="1">
      <mxGeometry x="710" y="330" width="120" height="30" as="geometry" />
    </mxCell>
    <mxCell id="25" value="季节性参数 (当启用季节性时显示)" style="rounded=1;whiteSpace=wrap;html=1;fillColor=#d5e8d4;strokeColor=#82b366;" vertex="1" parent="1">
      <mxGeometry x="250" y="370" width="200" height="30" as="geometry" />
    </mxCell>
    <mxCell id="26" value="P" style="rounded=1;whiteSpace=wrap;html=1;fillColor=#d5e8d4;strokeColor=#82b366;" vertex="1" parent="1">
      <mxGeometry x="460" y="370" width="60" height="30" as="geometry" />
    </mxCell>
    <mxCell id="27" value="D" style="rounded=1;whiteSpace=wrap;html=1;fillColor=#d5e8d4;strokeColor=#82b366;" vertex="1" parent="1">
      <mxGeometry x="530" y="370" width="60" height="30" as="geometry" />
    </mxCell>
    <mxCell id="28" value="Q" style="rounded=1;whiteSpace=wrap;html=1;fillColor=#d5e8d4;strokeColor=#82b366;" vertex="1" parent="1">
      <mxGeometry x="600" y="370" width="60" height="30" as="geometry" />
    </mxCell>
    <mxCell id="29" value="季节周期" style="rounded=1;whiteSpace=wrap;html=1;fillColor=#d5e8d4;strokeColor=#82b366;" vertex="1" parent="1">
      <mxGeometry x="670" y="370" width="160" height="30" as="geometry" />
    </mxCell>
    <mxCell id="30" value="自动参数优化" style="rounded=1;whiteSpace=wrap;html=1;fillColor=#d5e8d4;strokeColor=#82b366;" vertex="1" parent="1">
      <mxGeometry x="250" y="410" width="120" height="30" as="geometry" />
    </mxCell>
    <mxCell id="31" value="启用自动参数搜索" style="rounded=1;whiteSpace=wrap;html=1;fillColor=#d5e8d4;strokeColor=#82b366;" vertex="1" parent="1">
      <mxGeometry x="380" y="410" width="130" height="30" as="geometry" />
    </mxCell>
    <mxCell id="32" value="搜索范围设置" style="rounded=1;whiteSpace=wrap;html=1;fillColor=#d5e8d4;strokeColor=#82b366;" vertex="1" parent="1">
      <mxGeometry x="520" y="410" width="310" height="30" as="geometry" />
    </mxCell>

    <!-- 模型训练与评估区域 -->
    <mxCell id="33" value="3. 训练控制" style="text;html=1;strokeColor=none;fillColor=none;align=left;verticalAlign=middle;whiteSpace=wrap;rounded=0;fontSize=14;fontStyle=1" vertex="1" parent="1">
      <mxGeometry x="250" y="450" width="120" height="20" as="geometry" />
    </mxCell>
    <mxCell id="34" value="开始训练" style="rounded=1;whiteSpace=wrap;html=1;fillColor=#e1d5e7;strokeColor=#9673a6;" vertex="1" parent="1">
      <mxGeometry x="250" y="480" width="580" height="40" as="geometry" />
    </mxCell>

    <!-- 结果可视化区域 -->
    <mxCell id="35" value="4. 结果可视化" style="text;html=1;strokeColor=none;fillColor=none;align=left;verticalAlign=middle;whiteSpace=wrap;rounded=0;fontSize=14;fontStyle=1" vertex="1" parent="1">
      <mxGeometry x="250" y="530" width="120" height="20" as="geometry" />
    </mxCell>
    <mxCell id="36" value="结果标签页" style="shape=process;whiteSpace=wrap;html=1;backgroundOutline=1;fillColor=#f8cecc;strokeColor=#b85450;" vertex="1" parent="1">
      <mxGeometry x="250" y="555" width="580" height="30" as="geometry" />
    </mxCell>
    <mxCell id="37" value="模型信息" style="rounded=1;whiteSpace=wrap;html=1;fillColor=#f8cecc;strokeColor=#b85450;" vertex="1" parent="1">
      <mxGeometry x="250" y="595" width="140" height="30" as="geometry" />
    </mxCell>
    <mxCell id="38" value="残差分析" style="rounded=1;whiteSpace=wrap;html=1;fillColor=#f8cecc;strokeColor=#b85450;" vertex="1" parent="1">
      <mxGeometry x="400" y="595" width="140" height="30" as="geometry" />
    </mxCell>
    <mxCell id="39" value="预测结果" style="rounded=1;whiteSpace=wrap;html=1;fillColor=#f8cecc;strokeColor=#b85450;" vertex="1" parent="1">
      <mxGeometry x="550" y="595" width="140" height="30" as="geometry" />
    </mxCell>
    <mxCell id="40" value="评估指标" style="rounded=1;whiteSpace=wrap;html=1;fillColor=#f8cecc;strokeColor=#b85450;" vertex="1" parent="1">
      <mxGeometry x="700" y="595" width="130" height="30" as="geometry" />
    </mxCell>
    <mxCell id="41" value="结果内容展示区域" style="rounded=1;whiteSpace=wrap;html=1;fillColor=#f8cecc;strokeColor=#b85450;" vertex="1" parent="1">
      <mxGeometry x="250" y="635" width="580" height="30" as="geometry" />
    </mxCell>
  </root>
</mxGraphModel>
